<svg xmlns="http://www.w3.org/2000/svg" width="324" height="49" fill="none"><g clip-path="url(#clip0_285_1562)"><path fill="#000" d="M211.54 38.25a1.038 1.038 0 0 0 .578.582c.128.053.268.08.407.08h3.975a1.022 1.022 0 0 0 .75-.308.975.975 0 0 0 .308-.77V22.302a7.744 7.744 0 0 1 1.767-5.361 6.107 6.107 0 0 1 4.77-1.955 5.118 5.118 0 0 1 3.886 1.45 5.738 5.738 0 0 1 1.37 4.13v17.27a1.05 1.05 0 0 0 .665 1c.131.053.275.08.418.076h3.995a1.061 1.061 0 0 0 1.083-1.076V19.818a11.291 11.291 0 0 0-1.326-5.559 9.213 9.213 0 0 0-3.752-3.757 11.381 11.381 0 0 0-5.587-1.362 9.67 9.67 0 0 0-3.887.835 11.464 11.464 0 0 0-3.379 2.33V1.076a.981.981 0 0 0-.309-.77 1.02 1.02 0 0 0-.751-.308h-3.975a1.051 1.051 0 0 0-.771.31 1.037 1.037 0 0 0-.31.768v36.758c-.004.142.022.283.075.416ZM123.599 38.405a1.013 1.013 0 0 1-.253-.34.914.914 0 0 1-.083-.404V1.051c-.002-.286.118-.56.336-.766a1.25 1.25 0 0 1 .842-.284h4.33c.154-.006.308.016.452.065.145.049.277.123.39.22.217.205.338.48.336.765v19.005h1.877l9.958-9.71c.191-.191.426-.343.687-.445.262-.101.544-.151.828-.146h5.051c.306-.007.605.086.842.262a.947.947 0 0 1 .25.318c.058.12.088.25.087.382a1.213 1.213 0 0 1-.337.744L137.165 22.79l12.677 14.368a1.1 1.1 0 0 1 .264.656.915.915 0 0 1-.264.656 1.258 1.258 0 0 1-.794.24h-4.931a2.245 2.245 0 0 1-.966-.178 2.037 2.037 0 0 1-.766-.565l-10.68-12.247h-1.828v11.941a.928.928 0 0 1-.083.404 1.003 1.003 0 0 1-.254.34 1.086 1.086 0 0 1-.383.237 1.182 1.182 0 0 1-.458.069h-4.33a1.163 1.163 0 0 1-.77-.306Z"/><path fill="#000" fill-rule="evenodd" d="M34.969 47.328a6.036 6.036 0 0 1-2.33-2.367 5.996 5.996 0 0 1-.718-3.236 6.837 6.837 0 0 1 1.944-4.833 4.925 4.925 0 0 1-1.4-1.805 4.897 4.897 0 0 1-.433-2.238c0-1.15.289-2.284.84-3.296a8.603 8.603 0 0 1 2.318-2.658 9.54 9.54 0 0 1-2.518-3.318 10.305 10.305 0 0 1-.905-4.394 10.003 10.003 0 0 1 1.472-5.389 10.073 10.073 0 0 1 4.137-3.773 12.461 12.461 0 0 1 5.675-1.296c1.46-.008 2.909.237 4.284.725h10.07a.998.998 0 0 1 .998.64c.05.132.07.273.061.414v3.362a1.028 1.028 0 0 1-.64.983 1.02 1.02 0 0 1-.42.072H53.43c.58 1.346.873 2.797.861 4.262a9.848 9.848 0 0 1-1.501 5.405 10.206 10.206 0 0 1-4.063 3.67 12.46 12.46 0 0 1-5.741 1.493 13.577 13.577 0 0 1-4.638-.813 3.187 3.187 0 0 0-1.082 2.197 1.4 1.4 0 0 0 .773 1.384 5.923 5.923 0 0 0 2.208.484h6.338c2.412-.035 4.8.484 6.978 1.516a5.592 5.592 0 0 1 2.125 2.303c.474.954.663 2.022.547 3.08a7.548 7.548 0 0 1-.897 3.95 7.598 7.598 0 0 1-2.813 2.927 18.114 18.114 0 0 1-9.605 2.197 15.81 15.81 0 0 1-7.95-1.648Zm15.236-6.591a1.642 1.642 0 0 0-.993-1.714 7.252 7.252 0 0 0-2.783-.417h-5.012c-1.04.015-2.08-.037-3.114-.154a3.98 3.98 0 0 0-.552 2.197 2.603 2.603 0 0 0 .335 1.544c.268.468.676.842 1.167 1.07 1.372.522 2.839.754 4.306.681 4.438.044 6.647-1.01 6.647-3.097v-.11Zm-3.378-17.819a4.939 4.939 0 0 0 1.391-3.67 5.03 5.03 0 0 0-1.391-3.69 4.904 4.904 0 0 0-3.776-1.428 5.036 5.036 0 0 0-3.798 1.428 5.074 5.074 0 0 0-1.413 3.69 4.92 4.92 0 0 0 1.413 3.67 5.236 5.236 0 0 0 3.798 1.362 5.124 5.124 0 0 0 3.776-1.252v-.11ZM68.092 37.09a12.138 12.138 0 0 1-4.416-4.395 11.928 11.928 0 0 1-1.634-6.086v-5.493c-.015-2.137.55-4.24 1.634-6.086a12.359 12.359 0 0 1 4.416-4.394 12.282 12.282 0 0 1 12.211 0 12.137 12.137 0 0 1 4.417 4.394 11.667 11.667 0 0 1 1.656 6.086v3.406c0 .583-.233 1.142-.647 1.554a2.214 2.214 0 0 1-1.561.643H68.203v.264a5.928 5.928 0 0 0 1.744 4.246 5.984 5.984 0 0 0 4.262 1.752h8.126a.996.996 0 0 1 1 .64c.049.132.07.273.06.414v3.648a1.052 1.052 0 0 1-.287.769c-.208.199-.485.309-.773.307h-8.126a11.925 11.925 0 0 1-6.117-1.67Zm12.123-15.886v-.461a5.667 5.667 0 0 0-1.767-4.24 5.809 5.809 0 0 0-4.261-1.758 5.903 5.903 0 0 0-4.262 1.757 5.757 5.757 0 0 0-1.745 4.24v.462h12.035ZM93.756 32.642a12.18 12.18 0 0 0 4.433 4.448 11.928 11.928 0 0 0 6.029 1.625h8.126a1.068 1.068 0 0 0 .751-.307 1.05 1.05 0 0 0 .309-.77v-3.646a1.102 1.102 0 0 0-.309-.77 1.043 1.043 0 0 0-.751-.285h-8.126a6.046 6.046 0 0 1-4.263-1.757 5.983 5.983 0 0 1-1.766-4.241v-.264h16.054a2.02 2.02 0 0 0 1.546-.637c.408-.41.638-.962.64-1.538v-3.405c.014-2.138-.55-4.24-1.634-6.086a12.185 12.185 0 0 0-4.416-4.395 12.24 12.24 0 0 0-12.19 0 12.18 12.18 0 0 0-4.416 4.394 11.863 11.863 0 0 0-1.634 6.087v5.492a12.102 12.102 0 0 0 1.617 6.055Zm16.556-11.899v.461H98.255v-.461c0-1.59.636-3.116 1.766-4.241a6.045 6.045 0 0 1 4.263-1.757c1.599 0 3.132.632 4.263 1.757a5.985 5.985 0 0 1 1.765 4.241ZM153.021 34.185a8.098 8.098 0 0 0 2.254 2.806c2.138 1.583 4.872 2.387 7.65 2.252 1.743.016 3.469-.3 5.062-.928a12.206 12.206 0 0 0 4.172-2.71v1.949a.96.96 0 0 0 .081.42c.059.135.147.257.261.36.237.178.542.27.852.26h4.069a1.25 1.25 0 0 0 .463-.071c.147-.052.28-.132.39-.233a.97.97 0 0 0 .246-.338.88.88 0 0 0 .071-.398V19.385c.043-1.86-.488-3.695-1.535-5.306-1.033-1.542-2.548-2.783-4.361-3.573a16.187 16.187 0 0 0-6.53-1.234 16.806 16.806 0 0 0-7.31 1.516c-2.089.961-3.791 2.474-4.873 4.33a1.515 1.515 0 0 0-.121.456.861.861 0 0 0 .127.483c.09.149.223.273.384.361l3.143 1.906c.213.134.47.203.731.195.228-.013.448-.08.637-.194s.339-.272.435-.456c.712-.974 1.704-1.762 2.874-2.28a8.096 8.096 0 0 1 3.778-.665c1.537-.055 3.053.34 4.312 1.126.541.329.98.773 1.278 1.29.298.519.445 1.095.428 1.677.037.265.012.534-.074.79a1.882 1.882 0 0 1-.425.698 2.167 2.167 0 0 1-.706.486 2.393 2.393 0 0 1-.866.191 53.684 53.684 0 0 1-4.873.607c-.805.141-1.618.242-2.436.303-2.815.278-5.467 1.313-7.602 2.967a7.674 7.674 0 0 0-2.041 2.613 6.895 6.895 0 0 0-.664 3.125 7.242 7.242 0 0 0 .719 3.388Zm17.798-3.82a8.987 8.987 0 0 1-3.191 2.641v-.065a9.017 9.017 0 0 1-4.167 1.061c-1.233.061-2.45-.269-3.435-.93a3.099 3.099 0 0 1-.978-1.098 2.72 2.72 0 0 1-.313-1.372c0-1.862 1.535-3.053 4.605-3.551.682-.13 2.168-.325 4.458-.563l4.215-.541v.996c-.001 1.221-.417 2.414-1.194 3.421Z" clip-rule="evenodd"/><path fill="#000" d="M190.928 36.319a8.488 8.488 0 0 1-2.145-2.927 7.604 7.604 0 0 1-.637-3.438V15.433h-3.975a1.283 1.283 0 0 1-.459-.076 1.162 1.162 0 0 1-.386-.23.98.98 0 0 1-.269-.35.885.885 0 0 1-.079-.416V10.84c0-.138.031-.274.091-.402.06-.127.148-.243.258-.34.111-.098.243-.175.387-.228.145-.053.3-.08.457-.08h3.975V4.323a.907.907 0 0 1 .08-.416c.06-.132.152-.251.269-.35.109-.096.241-.172.388-.22.145-.05.299-.071.455-.064h4.497c.156-.005.311.018.456.067.145.049.277.123.39.217.224.206.348.48.346.766V9.79h9.765c.315 0 .62.11.842.308a.987.987 0 0 1 .351.742v3.587a.897.897 0 0 1-.079.416 1.007 1.007 0 0 1-.27.349c-.109.1-.241.178-.386.23a1.277 1.277 0 0 1-.458.076h-9.714v14.216c-.045.886.313 1.751.993 2.406.35.309.768.55 1.232.709.461.158.957.23 1.452.21h6.037c.159 0 .315.027.462.081.147.054.279.134.39.233.111.1.198.218.256.348.058.13.087.269.085.409v3.543a.987.987 0 0 1-.351.742 1.275 1.275 0 0 1-.842.307h-6.559a11.18 11.18 0 0 1-3.929-.535 10.23 10.23 0 0 1-3.376-1.848Z"/><path fill="#000" fill-rule="evenodd" d="M246.3 37.967a11.792 11.792 0 0 1-4.415-4.395 11.225 11.225 0 0 1-1.635-5.932v-6.591a11.225 11.225 0 0 1 1.635-5.933 12.161 12.161 0 0 1 4.461-4.369 12.27 12.27 0 0 1 12.101 0 12.196 12.196 0 0 1 4.46 4.37 11.422 11.422 0 0 1 1.633 5.932v6.591a11.422 11.422 0 0 1-1.633 5.932 12.257 12.257 0 0 1-7.399 5.578 12.316 12.316 0 0 1-9.208-1.183Zm10.357-6.043a5.785 5.785 0 0 0 1.767-4.24v-6.591c0-1.591-.635-3.117-1.765-4.242a6.05 6.05 0 0 0-8.526 0 5.987 5.987 0 0 0-1.767 4.242v6.59a5.986 5.986 0 0 0 1.017 3.332 6.023 6.023 0 0 0 2.705 2.209 6.06 6.06 0 0 0 3.483.341 6.038 6.038 0 0 0 3.086-1.64Z" clip-rule="evenodd"/><path fill="#000" d="M268.867 38.248c.049.132.125.253.221.355a1.111 1.111 0 0 0 .883.264h3.975a1.073 1.073 0 0 0 .772-.308c.102-.1.181-.22.234-.353.052-.132.079-.273.077-.415V22.257a7.733 7.733 0 0 1 1.765-5.36 6.115 6.115 0 0 1 4.77-1.956 5.152 5.152 0 0 1 3.888 1.45 5.825 5.825 0 0 1 1.367 4.13v17.27c-.002.142.023.284.075.416a1.074 1.074 0 0 0 .579.58c.13.054.267.08.407.08h3.886c.139.003.279-.023.409-.076a1.03 1.03 0 0 0 .342-.231.988.988 0 0 0 .309-.77V19.775a11.308 11.308 0 0 0-1.324-5.493 9.62 9.62 0 0 0-3.645-3.8 10.014 10.014 0 0 0-5.233-1.385 8.712 8.712 0 0 0-4.306 1.099 10.545 10.545 0 0 0-3.4 3.01v-2.373a1.038 1.038 0 0 0-.311-.768 1.061 1.061 0 0 0-.77-.309h-3.975a1.11 1.11 0 0 0-.774.308 1.063 1.063 0 0 0-.287.769v27.003c-.005.14.015.281.066.413Z"/><path fill="#5151E5" d="M.076 46.033a1.055 1.055 0 0 0 1.006.661h24.909a1.02 1.02 0 0 0 .75-.308.992.992 0 0 0 .31-.769V41.97a.985.985 0 0 0-.31-.769 1.016 1.016 0 0 0-.75-.307H1.082a1.065 1.065 0 0 0-1.006.66A1.05 1.05 0 0 0 0 41.97v3.647a1.05 1.05 0 0 0 .076.416ZM296.948 45.617c-.002.287.109.563.309.77a1.061 1.061 0 0 0 .772.307h24.909a1.059 1.059 0 0 0 1.06-1.077V41.97a.98.98 0 0 0-.309-.769 1.027 1.027 0 0 0-.751-.308h-24.909a1.072 1.072 0 0 0-.772.31 1.037 1.037 0 0 0-.309.768v3.646Z"/></g><defs><clipPath id="clip0_285_1562"><rect width="324" height="49" fill="#fff"/></clipPath></defs></svg>